<svg xmlns="http://www.w3.org/2000/svg" width="256" height="256"><path fill="#1976D2" fill-opacity=".02" fill-rule="evenodd" d="M0 128.004v128.004l128.25-.254 128.25-.254.254-127.75L257.008 0H0zm.485.496c0 70.4.119 99.053.265 63.672s.146-92.98 0-128S.485 58.1.485 128.5"/><path fill="#1976D2" fill-opacity=".424" fill-rule="evenodd" d="M0 128.004v128.004l128.25-.254 128.25-.254.254-127.75L257.008 0H0zm.485.496c0 70.4.119 99.053.265 63.672s.146-92.98 0-128S.485 58.1.485 128.5M115.5 44.647c-6.569 1.056-14.827 3.558-22.683 6.871C88.276 53.433 84.158 55 83.666 55c-.493 0-4.911 1.782-9.819 3.961-7.622 3.383-9.284 3.797-11.39 2.838-3.395-1.548-4.187-.306-2.08 3.261l1.771 2.999-3.324 3.113c-2.52 2.36-2.821 2.954-1.245 2.457 1.868-.589 2.032-.325 1.616 2.608-.255 1.795-1.246 4.388-2.202 5.763-3.527 5.069-8.047 15.145-10.633 23.703-2.238 7.409-2.669 10.769-2.727 21.297-.067 11.919.104 13.006 3.671 23.4 10.119 29.484 33.431 50.742 63.214 57.643l9.982 2.313-4 1.245c-2.2.685-4.787 1.28-5.75 1.322s-1.75.495-1.75 1.005c0 2.13 23.854 3.218 34.75 1.586 4.454-.667 5.872-2.481 2-2.559-1.238-.025-3.594-.618-5.236-1.318-2.937-1.253-2.839-1.31 6-3.526 10.219-2.561 23.393-8.42 30.638-13.624 2.705-1.944 6.941-4.221 9.413-5.061 4.264-1.447 4.628-1.42 7.117.538 3.34 2.628 4.11 1.89 1.757-1.683-2.701-4.1-1.919-8.881 2.501-15.281 25.767-37.315 17.579-84.406-19.625-112.864-5.563-4.256-21.222-11.513-29.315-13.587-6.417-1.644-27.617-2.848-33.5-1.902m-5 6.28C102.521 53.696 92 58.589 92 59.53c0 .273 1.688-.218 3.75-1.092 10.234-4.337 21.184-6.465 32.942-6.401 6.814.037 19.755 2.077 20.987 3.309.36.36-4.063.654-9.829.654-21.091 0-36.144 4.801-55.341 17.651C80.114 76.593 75.812 79 74.95 79s-2.441.661-3.509 1.468c-2.245 1.699-3.84 1.987-2.941.532 1.587-2.568-1.87-.514-6.948 4.126-6.033 5.514-8.821 10.564-12.67 22.944-1.902 6.121-2.304 9.632-2.283 19.93.024 11.328.318 13.348 3.128 21.549 3.473 10.137 8.549 19.477 14.668 26.992C77.368 192.473 100.029 205 115.877 205c4.963 0 4.931-.828-.076-2.014-3.448-.816-.721-.979 22.406-1.336 8.96-.138 9.428-.053 6.075 1.108-5.258 1.822-5.345 2.424-.244 1.701 12.481-1.77 28.047-8.961 32.287-14.915l2.126-2.986-3.976 2.41c-2.186 1.326-5.1 3.035-6.475 3.797l-2.5 1.387 2.5-1.826c4.293-3.136 11.085-9.616 12.134-11.577.692-1.292.657-2.296-.113-3.224-1.3-1.566.068-2.812 2.192-1.997.766.294 3.056-.16 5.09-1.01 2.148-.898 3.697-1.12 3.697-.531 0 2.598 2.416.432 6.417-5.752 8.356-12.917 12.853-27.459 12.906-41.735.041-11.219-1.52-18.583-6.291-29.661-12.961-30.098-41.997-48.997-74.919-48.764-8.889.063-11.913.527-18.613 2.852m1.959 12.14c-1.089 1.762.059 2.009 2.114.454 1.692-1.28 1.721-1.461.236-1.489-.93-.018-1.988.448-2.35 1.035m27.576 1.923c-7.108 2.618-15.177 8.018-18.512 12.391l-2.651 3.476-3.202-1.889c-5.248-3.096-15.446-5.262-22.155-4.704-8.884.738-16.035 4.351-22.515 11.375-6.141 6.657-8.877 12.913-9.722 22.235-1.353 14.921 9.136 32.339 22.472 37.315 3.082 1.15 3.25 1.476 3.25 6.302 0 11.341 5.606 24.317 13.5 31.246 2.2 1.932 6.925 4.918 10.5 6.637 6.078 2.923 7.215 3.125 17.5 3.109 9.938-.015 11.531-.28 16.5-2.737 11.18-5.53 15.388-8.365 16.049-10.815.361-1.337 2.135-5.355 3.943-8.929 2.744-5.424 3.369-7.937 3.783-15.198l.496-8.699 6.537-3.803c14.978-8.712 22.524-28.197 17.797-45.952-3.289-12.353-13.201-24.339-24.605-29.754-8.544-4.057-20.51-4.72-28.965-1.606M115.5 69c-1.63.701-1.688.872-.309.93.93.038 1.969-.38 2.309-.93.711-1.15.676-1.15-2 0m43.5-.308c-5.38.903-8.81 2.475-9.275 4.251-.267 1.022-2.584 2.786-5.149 3.92-2.565 1.135-5.951 2.98-7.524 4.1-3.432 2.444-5.623 2.598-6.445.455-.843-2.195-.931-1.979 2.337-5.702l2.945-3.353-2.93.43c-1.612.236-4.978 2.232-7.48 4.434l-4.55 4.005 4.925 5.207c6.049 6.396 9.038 12.069 9.647 18.308.379 3.876.309 4.168-.376 1.583C133.132 98.807 123.839 86 120.374 86c-1.117 0-2.58 3.285-5.3 11.899-1.528 4.838-1.408 15.103.176 15.095.688-.003 3.833-.429 6.99-.946 17.149-2.809 36.084 7.368 43.803 23.543l2.978 6.24 3.962-1.556c5.472-2.15 13.812-10.676 16.898-17.275 2.219-4.746 2.575-6.878 2.595-15.552.023-9.627-.135-10.373-3.735-17.658-4.166-8.429-11.544-16.064-19.021-19.683-4.27-2.068-5.704-2.257-10.72-1.415M38.39 78.426c-.91 2.371.377 4.765 2.357 4.384 1.107-.213 1.753-1.249 1.753-2.81 0-2.851-3.156-4.059-4.11-1.574m57.36 1.824C93.138 82.026 91 84.012 91 84.663c0 1.615-13.719 10.629-14.986 9.846-1.944-1.202-.992-4.936 2.062-8.087l3.076-3.174-2.679.512c-3.769.721-9.27 6.578-12.352 13.154-2.165 4.616-2.61 6.975-2.567 13.586.092 14.09 6.491 24.942 18.211 30.881l4.976 2.522 2.845-6.702c3.162-7.448 12.101-17.381 18.664-20.738l3.75-1.918v-6.612c0-5.578 1.397-12.82 4.537-23.527.518-1.765-.145-2.42-4.211-4.164-8.499-3.644-11.205-3.643-16.576.008m51.035 9.304c-1.826.991-3.074 2.807-3.811 5.543-1.378 5.116-.55 9.013 2.527 11.904 1.84 1.729 2.264 2.922 1.824 5.126-.68 3.397-.021 3.566 3.402.873 1.897-1.492 4.057-2 8.504-2 8.525 0 13.353-3.313 13.841-9.5.416-5.262-.275-7.549-3.149-10.423-2.971-2.971-3.375-3.076-11.75-3.037-5.677.026-9.611.549-11.388 1.514m2.493 8.568c-1.536 1.536-.467 3.878 1.77 3.878 2.257 0 3.156-1.305 2.348-3.41-.712-1.856-2.524-2.062-4.118-.468m6.326.468c-.813 2.118.095 3.41 2.396 3.41 1.035 0 2.135-.409 2.444-.91C161.4 99.544 159.88 97 158 97c-.982 0-2.061.716-2.396 1.59m7.674-.468C161.756 99.644 162.802 102 165 102s3.244-2.356 1.722-3.878C166.105 97.505 165.33 97 165 97s-1.105.505-1.722 1.122m-67.707 4.607-.82 4.23-3.126-2.218-3.125-2.218 2.264 2.891c1.245 1.59 2.118 3.037 1.941 3.215-.178.178-2.097.739-4.264 1.247l-3.941.923 4.25.101c4.851.114 5.099.567 2.076 3.786C89.63 115.958 89.11 117 89.671 117s1.863-.933 2.895-2.072l1.875-2.073 1.203 3.323c1.128 3.113 1.209 3.158 1.28.727.094-3.216 2.636-5.602 6.576-6.172l3-.433-2.781-.15c-3.558-.192-4.485-2.605-2.09-5.437 1.864-2.204 1.863-2.206-.208-.463-3.124 2.63-4.262 2.142-4.665-2l-.364-3.75zM86.5 101c.34.55.816 1 1.059 1s.441-.45.441-1-.477-1-1.059-1-.781.45-.441 1m14 14c.995 1.1 2.035 2 2.31 2s-.315-.9-1.31-2-2.035-2-2.31-2 .315.9 1.31 2m16.088 1.037c-6.832 2.143-15.41 7.727-18.889 12.297C94.122 133.032 91 139.587 91 142.399c0 2.176.557 2.562 4.57 3.164 2.513.377 7.088.179 10.167-.439s5.795-.926 6.037-.683c1.093 1.093-11.348 3.677-16.529 3.433-5.381-.253-5.767-.119-6.089 2.113-.555 3.851 1.833 14.098 4.61 19.779 3.135 6.413 11.556 14.595 17.983 17.473 3.242 1.451 7.505 2.265 13.42 2.562 7.663.385 9.504.117 15.862-2.313 5.899-2.254 7.733-3.513 10.185-6.993 1.646-2.334 4.688-5.197 6.762-6.362 4.874-2.74 7.996-9.754 8.744-19.641l.547-7.23-7.885.003c-10.127.004-17.57-2.738-24.104-8.878-2.629-2.471-3.88-4.06-2.78-3.531s3.077 2.112 4.394 3.52c2.487 2.659 8.568 5.017 15.831 6.139 4.699.725 12.275-1.878 12.275-4.218 0-5.809-10.674-18.085-19.214-22.098-7.835-3.682-8.525-3.681-9.305.012-1.001 4.732-6.157 14.106-8.598 15.63-2.069 1.292-2.071 1.284-.233-1.238 1.017-1.397 2.155-2.554 2.528-2.572.898-.041 4.822-10.59 4.822-12.962 0-1.02-.712-2.128-1.582-2.462-2.912-1.118-10.861-.442-16.83 1.43M170.5 117c-.782 1.266.542 1.266 2.5 0 1.293-.835 1.266-.971-.191-.985-.93-.008-1.969.435-2.309.985m-54.741 2.423c-7.396 2.64-12.458 7.593-11.175 10.936.84 2.187 3.004 2.07 6.397-.345 1.534-1.093 4.866-2.877 7.404-3.965 4.724-2.024 5.893-4.371 3.415-6.849-1.444-1.444-1.361-1.447-6.041.223m64.719 4.401c-1.112.922-3.059 3.144-4.326 4.938-1.325 1.875-2.804 2.982-3.478 2.603-.88-.493-.889-.349-.039.573 2.328 2.526 10.824-3.959 10.195-7.782-.312-1.898-.44-1.917-2.352-.332m-59.082 18.209c-2.258 1.118-4.62 3.163-5.25 4.546-1.663 3.651-1.404 11.175.496 14.391 1.351 2.289 1.439 3.359.495 6.067-.63 1.808-.961 3.473-.734 3.699s2.518-.71 5.094-2.081c3.964-2.111 4.335-2.543 2.421-2.824-3.509-.514-3.358-2.482.287-3.756 4.313-1.508 14.795-2.593 14.795-1.532 0 .455-1.012 1.979-2.25 3.385l-2.25 2.558 2.352-1.991c7.714-6.527 6.406-19.4-2.342-23.055-4.709-1.968-8.266-1.807-13.114.593m59.827 1.524c-1.223.856-2.223 2.206-2.223 3 0 1.072.514.929 2-.557 1.169-1.169 3.35-2.006 5.25-2.015 2.466-.012 2.888-.249 1.75-.985-2.157-1.394-4.237-1.223-6.777.557m-54.499 7.577c-3.886 2.175-.43 7.849 3.5 5.746.977-.523 1.776-1.819 1.776-2.88 0-2.515-2.995-4.142-5.276-2.866m61.782.86c-.999 1.103-2.759 2.013-3.911 2.021-1.561.012-1.748.235-.734.878 1.939 1.229 5.024.191 6.252-2.104 1.468-2.743.561-3.191-1.607-.795m-38.457 19.17c-2.448 2.18-4.555 4.678-4.683 5.55s-.825 1.961-1.55 2.421c-2.616 1.659 3.339.887 6.201-.804 3.489-2.061 5.252-5.198 4.815-8.569l-.332-2.562zM163 195c-.901.582-1.025.975-.309.985.655.008 1.469-.435 1.809-.985.767-1.242.421-1.242-1.5 0m-13.187 5.683c.721.289 1.584.253 1.916-.079s-.258-.568-1.312-.525c-1.165.048-1.402.285-.604.604"/><path fill="#1976D2" fill-opacity=".076" fill-rule="evenodd" d="M0 128.004v128.004l128.25-.254 128.25-.254.254-127.75L257.008 0H0zm.485.496c0 70.4.119 99.053.265 63.672s.146-92.98 0-128S.485 58.1.485 128.5M124.882 23.191c-.066.72-.058 1.82.017 2.445.177 1.475-2.656 2.567-3.426 1.32-.325-.526-1.9-.956-3.501-.956-1.96 0-2.748-.42-2.416-1.286.589-1.533-3.709-1.85-4.724-.348-.368.543-2.618 1.078-5 1.188s-4.797.255-5.366.323c-.569.067-1.809 1.434-2.756 3.036-1.275 2.159-2.754 3.088-5.715 3.588-2.197.371-3.995 1.085-3.995 1.587 0 1.354-4.393 1.104-5.947-.338-1.09-1.012-1.192-.98-.536.17.604 1.057.382 1.255-.869.775-1.111-.426-2.617.337-4.453 2.259-1.526 1.596-3.994 3.208-5.485 3.583-1.645.413-2.71 1.362-2.71 2.416 0 .956-.9 2.552-2 3.547s-2 2.415-2 3.155-.45 1.401-1 1.47c-3.922.49-7.035 2.009-6.36 3.102.936 1.513-1.225.149-6.584-4.156-2.444-1.964-4.128-3.047-3.744-2.406.385.64.252 1.315-.295 1.5-.548.184 1.409 3.035 4.347 6.335l5.344 6-3.036.116c-4.057.154-6.79 3.542-6.01 7.446.788 3.938-1.04 5.9-5.345 5.739-3.422-.129-5.725 1.609-4.902 3.699 1.439 3.656 1.715 4.918.796 3.63-.716-1.004-1.083-.266-1.371 2.75-.216 2.266-.043 4.12.384 4.12s.776.675.776 1.5-.45 1.5-1 1.5-1 1.377-1 3.059c0 1.785-.417 2.802-1 2.441-.595-.368-1 .823-1 2.941 0 1.957-.382 3.559-.849 3.559-1.222 0-2.221 20.684-1.138 23.535.5 1.315 1.122 5.67 1.382 9.678.749 11.536 7.013 25.764 15.312 34.777 1.261 1.369 2.293 2.851 2.293 3.293 0 .632 8.982 10.444 12.741 13.918l5.13 4.75c2.403 2.227 4.734 4.049 5.178 4.049.445 0 1.403.563 2.13 1.25 3.656 3.459 21.563 9.216 26.282 8.45l3.497-.567-2.481 2.676c-1.365 1.472-2.334 3.129-2.152 3.683.627 1.917 17.89 5.694 26.675 5.837 7.999.13 21.436-2.018 27.782-4.441 2.597-.991 2.634-1.099.826-2.427-1.04-.764-2.39-1.568-3-1.788-3.045-1.097 5.615-3.587 19.892-5.72 12.703-1.898 23.5-6.364 23.5-9.722 0-1.241.624-1.024 2.75.96 3.528 3.29 6.977 5.059 7.673 3.934.299-.484-.996-2.898-2.879-5.363-2.561-3.355-3.136-4.77-2.283-5.623.626-.626.754-1.139.284-1.139s-.171-.787.666-1.75c.836-.963 1.795-2.91 2.131-4.328s1.746-3.803 3.134-5.301 2.524-3.194 2.524-3.768.947-2.374 2.104-3.999 2.253-4.549 2.434-6.497 1.259-5.521 2.395-7.939 2.067-5.665 2.067-7.216.615-3.661 1.366-4.688c.795-1.087 1.176-3.279.912-5.24-.25-1.855-.108-4.137.315-5.073 1.187-2.622 1.297-14.544.149-15.972-.562-.7-1.229-2.95-1.482-5-.769-6.235-.856-6.632-2.085-9.563-.654-1.559-.92-3.27-.591-3.803.687-1.111-4.323-11.863-5.528-11.863-.438 0-1.389-2.119-2.115-4.709-1.161-4.147-2.174-5.83-6.441-10.698-.55-.627-1.122-1.722-1.272-2.432s-1.156-2.241-2.238-3.402-2.23-2.939-2.551-3.95c-.32-1.011-.951-1.61-1.402-1.332-1.007.623-4.037-3.836-4.037-5.942 0-.844-.675-1.535-1.5-1.535s-1.5-.477-1.5-1.059-.45-.781-1-.441-1 .141-1-.441S186.114 49 185.031 49c-1.283 0-1.78-.491-1.427-1.41.326-.849-.289-1.673-1.546-2.072-1.148-.364-1.859-1.032-1.579-1.483.279-.452-.502-1.083-1.736-1.402-2.099-.544-5.194-2.829-10.464-7.724-1.404-1.305-2.927-1.838-4.144-1.452-1.12.356-2.565-.03-3.458-.923-.844-.844-2.016-1.534-2.606-1.534S157 30.646 157 30.213s-1.455-.898-3.234-1.034-3.668-.681-4.2-1.213c-.531-.531-1.889-.973-3.016-.981-1.446-.011-1.671-.256-.764-.832.805-.51-.132-.851-2.5-.908-13.242-.323-17.164-.634-16.736-1.325.265-.43.025-1.064-.534-1.41s-1.069-.039-1.134.681m-4.084 34.812c-9.971 1.733-32.118 12.001-31.176 14.454.331.863 3.245 1.451 8.688 1.752 5.624.312 10.13 1.246 14.384 2.984l6.194 2.529 5.54-5.366c3.177-3.077 8.529-6.821 12.547-8.776 6.584-3.205 7.549-3.395 15.998-3.156 8.041.227 9.758.634 16.259 3.858 17.573 8.713 28.845 28.968 25.925 46.588-2.256 13.618-10.253 25.189-21.547 31.181-3.854 2.044-4.405 2.726-3.974 4.911.842 4.266-1.402 14.941-4.56 21.689-1.647 3.519-2.738 7.066-2.425 7.882.962 2.508-2.378 6.467-5.457 6.467-1.518 0-5.67 1.539-9.227 3.42-9.26 4.898-16.891 6.271-25.898 4.662-19.851-3.548-33.746-18.795-34.873-38.266l-.454-7.836-5.954-3.174c-7.23-3.853-14.035-11.357-17.057-18.806-1.808-4.456-2.223-7.398-2.189-15.5.037-8.822.355-10.602 2.695-15.107 1.459-2.81 3.809-6.483 5.224-8.164l2.572-3.056-2.561.281c-5.718.627-11.666 10.701-16.02 27.131-2.307 8.704-2.556 11.137-2.038 19.915 1.332 22.568 10.962 39.851 30.586 54.891 7.341 5.626 22.467 12.791 20.589 9.753-.291-.47 2.045-.003 5.191 1.038 9.93 3.286 19.394 4.237 28.924 2.903 10.798-1.51 17.357-3.98 26.503-9.982 11.313-7.423 15.736-11.453 14.667-13.363-.951-1.7.423-3.292 2.001-2.317 1.328.821 8.161-4.518 12.367-9.663 13.775-16.849 17.388-38.013 10.037-58.795-3.972-11.228-6.032-15.128-12.72-24.082-7.852-10.513-19.617-18.713-31.565-21.999-5.301-1.459-30.446-2.054-37.196-.881m-9.391 6.51c-.78 3.11 1.038 5.487 4.196 5.487 2.818 0 4.341-4.158 2.386-6.513-2.042-2.461-5.856-1.866-6.582 1.026M152 77.058c-1.925.469-4.344.6-5.375.29-1.303-.391-1.646-.192-1.125.652.528.855.176 1.032-1.19.598-1.27-.403-3.609.49-6.765 2.58-4.786 3.17-4.837 3.18-6.455 1.182-1.598-1.975-3.41-2.022-5.782-.152-.872.688-.01 2.461 3.22 6.619 4.541 5.848 8.472 15.296 8.472 20.361 0 1.849.625 3.083 1.75 3.459 11.852 3.956 21.353 11.405 26.716 20.945l2.852 5.073 3.941-1.904c4.847-2.342 12.012-8.841 15.773-14.307 1.548-2.25 3.37-6.781 4.049-10.068 1.061-5.135.992-6.967-.488-13.007-1.624-6.627-7.168-18.138-8.226-17.08-.267.267-4.171-1.032-8.676-2.888-8.54-3.518-15.115-4.2-22.691-2.353M96 87.504c-9.372 3.77-10.454 4.039-9.405 2.341.854-1.381-.704-.53-5.189 2.834-3.653 2.74-5.947 2.958-6.833.651-.526-1.372-1.333-.927-4.53 2.501-4.898 5.254-6.44 9.85-5.773 17.208.932 10.285 8.861 20.308 18.545 23.444 2.923.946 5.43 1.562 5.572 1.369.141-.194 1.472-2.475 2.958-5.069 1.485-2.595 4.928-6.91 7.65-9.589l4.95-4.873-2.842-2.722c-3.183-3.05-3.993-2.334-4.223 3.733-.113 2.971-.184 2.904-1.142-1.082-.562-2.338-1.324-4.25-1.693-4.25s-1.964 1.35-3.545 3-3.293 3-3.806 3 .472-1.435 2.187-3.19c4.226-4.322 3.983-5.623-1.131-6.05l-4.25-.355 4.25-.83c2.338-.457 4.25-1.258 4.25-1.78s-1.37-2.319-3.045-3.994c-4.043-4.043-3.104-4.737 1.151-.851 1.837 1.677 3.689 3.05 4.117 3.05s.777-1.575.777-3.5.45-3.5 1-3.5 1 1.323 1 2.941c0 4.158 1.179 4.402 4.89 1.012 4.39-4.01 4.992-3.721 1.214.582-1.707 1.944-3.104 3.89-3.104 4.323s1.688 1.262 3.75 1.839l3.75 1.05-3.191.127c-4.352.172-5.046 1.843-2.022 4.867l2.533 2.533 3.59-2.218c3.555-2.198 3.59-2.286 3.59-9.076 0-5.902 1.804-16.7 3.551-21.251.418-1.09-.741-1.425-5.258-1.521-4.467-.095-7.738.659-14.293 3.296m56.5-.013c-.55.184-2.251.61-3.781.948-3.423.756-6.71 5.828-6.715 10.361-.004 3.581 2.452 9.2 4.022 9.2.536 0 .974 1.575.974 3.5 0 4.025.735 4.283 4.273 1.5 1.914-1.506 4.057-2 8.67-2 6.885 0 10.311-1.657 12.608-6.099 3.22-6.227.007-14.324-6.586-16.595-3.211-1.106-11.152-1.586-13.465-.815m-34.768 7.759c-2.292 1.736-4.174 9.583-3.35 13.971.671 3.581.746 3.631 4.401 2.961 2.044-.375 6.53-.682 9.967-.682 3.767 0 6.25-.424 6.25-1.068 0-3.176-3.469-11.992-5.529-14.052-2.674-2.673-8.909-3.274-11.739-1.13m31.648 3.202c-.697 1.815.315 3.548 2.072 3.548 1.825 0 2.644-2.504 1.27-3.878-1.523-1.523-2.674-1.41-3.342.33m6.73-.085c-1.716 2.068 1.284 4.381 3.402 2.623 1.151-.955 1.241-1.583.378-2.623-.624-.752-1.475-1.367-1.89-1.367s-1.266.615-1.89 1.367m7.226.2c-.834 2.172 1.282 4.215 2.797 2.7 1.28-1.28.487-4.267-1.133-4.267-.585 0-1.333.705-1.664 1.567m38.124.019c.44 1.053 1.813 5.064 3.051 8.914 1.662 5.167 2.445 6.533 2.991 5.215.958-2.313-1.315-10.429-3.114-11.12-.763-.293-1.388-1.195-1.388-2.005s-.526-1.797-1.17-2.195c-.827-.511-.935-.162-.37 1.191m-31.832 18.942c-1.313 3.421-.606 6.44 1.89 8.076 2.294 1.503 2.368 1.759.837 2.878-1.976 1.445-1.185 4.518 1.163 4.518 4.936 0 10.482-5.971 10.482-11.284 0-3.333-1.029-4-3.175-2.058-1.01.915-1.947 1.478-2.081 1.253s-.739-1.311-1.345-2.411c-1.425-2.589-6.889-3.272-7.771-.972m37.961 3.635c.894 6.998 1.411 7.387 1.411 1.063 0-2.81-.471-5.399-1.046-5.754-.709-.439-.827 1.072-.365 4.691m-34.839-1.807c-1.652.619-2.75 1.777-2.75 2.9 0 2.65 6.325 2.083 6.836-.612.506-2.669-.928-3.472-4.086-2.288m-38.676 6.445-3.106 6.301 3.182 2.699c6.271 5.319 6.709 5.478 13.709 4.977 6.878-.492 12.489-2.636 13.45-5.14.782-2.039-4.52-8.85-9.409-12.086-3.068-2.03-5.518-2.782-9.432-2.897l-5.288-.155zM105.5 124c-.34.55-1.451 1-2.47 1-1.984 0-6.17 4.437-8.577 9.09-1.382 2.674-1.333 2.941.787 4.308 2.077 1.339 10.754 2.174 18.372 1.768 1.787-.095 4.769-1.488 7-3.271 2.139-1.707 4.74-3.707 5.782-4.445 1.704-1.205 1.762-1.672.577-4.645-.724-1.818-1.408-3.437-1.52-3.598-.481-.692-11.036 3.926-14.57 6.375-3.179 2.203-4.13 2.456-5.372 1.425-1.934-1.605-1.917-3.979.048-6.784.856-1.223 1.332-2.223 1.059-2.223s-.776.45-1.116 1m17.841 13.869c-8.992 7.017-15.187 9.461-25.208 9.943l-8.367.403.662 6.142c1.361 12.622 10.877 25.368 22.063 29.554 7.868 2.943 19 2.846 27.837-.244 7.71-2.696 8.573-3.252 4.972-3.203-1.433.02-2.798-.525-3.034-1.21-.486-1.409 11.785-13.341 12.968-12.609.421.26.766 1.582.766 2.938v2.466l3.5-3.185c1.925-1.752 3.5-3.804 3.5-4.56s.704-2.449 1.564-3.762 1.815-4.817 2.122-7.787l.557-5.4-5.986.433c-10.496.759-22.078-3.809-28.757-11.342l-3-3.384zm83.854-.369c.02 1.65.244 2.204.498 1.231s.237-2.323-.037-3-.481.119-.461 1.769M49.07 140.691c.039.445.457 1.709.93 2.809.829 1.928.862 1.921.93-.191.038-1.205-.38-2.469-.93-2.809s-.968-.254-.93.191m71.914 1.144c-6.5 3.423-8.702 11.489-5.015 18.369 1.63 3.041 1.783 4.21.885 6.786-1.457 4.179-.661 4.633 3.931 2.239 2.282-1.19 4.936-1.814 6.468-1.521 7.465 1.427 14.75-5.338 14.743-13.69-.009-11.139-10.949-17.482-21.012-12.183m59.762 1.415c-3.046 2.327-3.136 6.133-.226 9.592 3.032 3.603 5.279 3.951 8.526 1.322 6.388-5.173-1.771-15.901-8.3-10.914m3.136 1.5a6 6 0 0 0-.04 1.382c.044.348-.69.573-1.631.5-2.617-.202-2.885 4.937-.328 6.305 4.397 2.354 10.196-3.727 7.106-7.45-1.276-1.538-4.898-2.06-5.107-.737m-132.82 1.953c-.16 3.11 8.305 20.182 12.15 24.502l2.932 3.295L63.7 171c-1.345-1.925-3.874-6.65-5.62-10.5-5.651-12.458-6.955-15.022-7.018-13.797m74.576 5.797c-.854 2.226.332 4.5 2.347 4.5 2.769 0 4.547-2.654 3.015-4.5-.685-.825-2.042-1.5-3.015-1.5s-2.03.675-2.347 1.5m-18.825 56.183c.721.289 1.584.253 1.916-.079s-.258-.568-1.312-.525c-1.165.048-1.402.285-.604.604"/><path fill="#1976D2" fill-opacity=".647" fill-rule="evenodd" d="M118.971 63.946c.94 1.756.856 2.668-.423 4.621-2.012 3.071-4.117 3.087-6.822.05l-2.122-2.383-1.802 2.291c-.991 1.26-1.802 2.782-1.802 3.383 0 .6-.787 1.101-1.75 1.113s1.312 1.102 5.054 2.422 7.424 2.917 8.183 3.546c1.829 1.519 4.795-2.862 4.951-7.313.114-3.277-1.777-8.15-3.601-9.277-.616-.381-.562.247.134 1.547m35.809 20.586c-.396.408-2.344.871-4.329 1.028-3.731.296-17.022 2.375-19.169 2.999-.838.243-.243 2.438 1.91 7.039 1.721 3.676 3.337 8.854 3.592 11.507.435 4.522.689 4.893 4.09 5.969 8.265 2.616 18.943 10.658 23.116 17.409 1.578 2.554 2.518 3.142 4.435 2.776 1.471-.281 2.237-.977 1.936-1.759-.273-.712.154-1.903.95-2.646 1.252-1.169 1.127-1.646-.933-3.554-2.903-2.692-3.038-5.64-.378-8.3 2.671-2.671 4.436-2.521 7.356.628l2.437 2.628 1.235-2.308c1.124-2.1 1.345-2.158 2.454-.642 1.085 1.485 1.413 1.304 3.006-1.653 4.708-8.743-1.424-23.028-12.134-28.268-5.414-2.649-17.993-4.483-19.574-2.853m-7.397 4.051c-5.905 2.914-7.466 12.788-2.883 18.235 1.375 1.634 2.5 4.143 2.5 5.576 0 2.957 2.044 3.463 4.08 1.009 1.058-1.275 2.897-1.525 9.123-1.242 4.288.194 7.797-.04 7.797-.522 0-.481 1.35-2.413 3-4.292 2.4-2.733 3-4.333 3-7.999 0-3.991-.502-5.085-3.882-8.466-3.858-3.857-3.933-3.882-11.75-3.859-5.02.014-8.996.579-10.985 1.56m45.425-.058c-.289.289.311 3.542 1.333 7.229 2.364 8.522 2.356 15.471-.025 23.121-3.544 11.388-9.848 19.366-19.616 24.829l-5 2.796-.17 7.54c-.126 5.593-.878 9.307-2.909 14.381-2.209 5.519-2.515 7.2-1.58 8.696 1.554 2.489 1.46 4.4-.393 7.984-1.488 2.877-1.808 2.995-7.75 2.842-4.968-.128-7.389.407-12.198 2.698-5.361 2.555-7.065 2.859-16 2.859-9.411 0-10.442-.211-17.506-3.585-8.575-4.095-15.181-10.162-19.29-17.715-3.232-5.942-5.916-17.331-5.118-21.718.507-2.787.195-3.19-4.078-5.266-6.265-3.044-14.186-10.647-17.116-16.429C62.51 123.1 60 113.92 60 109.068v-3.512l-2.25 2.254c-2.019 2.023-2.233 3.148-2.089 10.972.209 11.273 2.226 19.682 7.712 32.148 9.444 21.459 24.289 36.791 42.367 43.757 5.967 2.299 8.402 2.632 20.76 2.836 7.7.127 16.025-.231 18.5-.795 7.801-1.778 18.336-7.669 27.776-15.532l5.276-4.395-3.526-3.904c-1.939-2.146-3.526-4.112-3.526-4.368 0-.743 3.275.641 6.037 2.55l2.537 1.754 4.6-5.218c8.926-10.123 14.907-24.959 16.865-41.833 1.69-14.561.95-21.167-3.399-30.324-3.547-7.469-3.854-7.91-4.832-6.933M99.5 93.994c-5.477.781-16.085 4.924-21.346 8.336-3.657 2.372-7.154 9.074-7.154 13.711 0 3.935 8.951 12.701 16.463 16.124 2.558 1.166 2.903 1.044 4.828-1.705 3.456-4.936 11.368-12.245 15.579-14.393l3.973-2.027-.133-6.77c-.073-3.724.205-8.57.616-10.77s.382-3.461-.065-2.803c-.536.789-1.317.879-2.287.266-1.624-1.028-3.077-1.023-10.474.031m50.596 3.947c-1.511.934-.815 4.059.904 4.059 1.464 0 2.466-2.934 1.374-4.026-.501-.501-1.497-.516-2.278-.033m-55.111 2.809c-.029 5.16-1.402 5.678-4.8 1.808C88.467 100.601 86.822 99 86.531 99c-1.313 0-.288 2.143 2.469 5.161 1.65 1.807 3 3.634 3 4.062 0 .427-1.8.777-4 .777s-4 .45-4 1 1.237 1.007 2.75 1.015 3.425.465 4.25 1.015c1.256.837.955 1.498-1.845 4.056-1.84 1.681-3.071 3.331-2.735 3.667.335.336 2.087-.821 3.893-2.571S93.911 114 94.298 114c.386 0 .702 1.548.702 3.441s.45 3.719 1 4.059c.575.355 1.007-.576 1.015-2.191.025-4.484 1.306-5.717 3.464-3.333 2.731 3.018 3.998 2.446 1.531-.691-2.019-2.566-2.037-2.754-.323-3.43.997-.393 2.852-.746 4.122-.785 3.681-.112 1.441-2.07-2.368-2.07-1.893 0-3.439-.338-3.436-.75.002-.412 1.352-2.188 3-3.946 1.647-1.757 2.995-3.67 2.995-4.25 0-1.502-1.989-1.312-2.055.196-.031.688-1.371 2.289-2.979 3.559l-2.924 2.308-.649-4.058c-.734-4.592-2.385-5.489-2.408-1.309m61.205-1c.186.963 1 1.75 1.81 1.75s1.624-.787 1.81-1.75c.236-1.228-.304-1.75-1.81-1.75s-2.046.522-1.81 1.75m7 0c.186.963 1 1.75 1.81 1.75s1.624-.787 1.81-1.75c.236-1.228-.304-1.75-1.81-1.75s-2.046.522-1.81 1.75m-103.111 3.833c.048 1.165.285 1.402.604.605.289-.722.253-1.585-.079-1.917s-.568.258-.525 1.312m57.171-.921c-1.892.764-1.498 4.09.75 6.338 1.651 1.651 3.267 1.986 9.25 1.921 3.988-.043 6.685-.307 5.994-.585-.691-.279-1.031-.872-.756-1.317.844-1.365-2.796-4.731-6.387-5.906-3.53-1.156-6.703-1.317-8.851-.451m15.969 25.757c-.897 1.968-.803 2.527.508 3.03 2.321.89 3.149-.597 1.777-3.196l-1.186-2.247zm-4.73 5.599c-1.408 2.278-12.312 9.54-17.475 11.638-3.028 1.231-8.371 2.544-11.875 2.92l-6.37.682.469 4.161c2.004 17.778 23.929 31.219 43.333 26.564 2.986-.716 5.429-1.822 5.429-2.457s2.068-2.7 4.595-4.59 5.017-4.223 5.535-5.186 1.755-1.75 2.75-1.75c2.599 0 5.473-3.544 4.839-5.967-.34-1.301-.047-2.033.816-2.033 1.778 0 2.649-1.537 3.497-6.173l.699-3.827h-5.684c-10.551 0-21.225-4.669-27.371-11.973-1.458-1.733-2.825-2.594-3.187-2.009m-8.19 7.942c-6.066 3.698-8.172 12.441-4.465 18.54 1.466 2.412 1.628 3.637.827 6.249-1.324 4.32-.386 4.967 4.099 2.828 2.054-.979 6.152-1.849 9.105-1.933 4.887-.139 5.665-.493 8.634-3.927 5.812-6.724 5.394-14.97-1.048-20.626-2.974-2.611-4.33-3.09-8.736-3.087-3.407.002-6.325.68-8.416 1.956m59.258 2.263c-.856 1.222-1.557 3.267-1.557 4.545 0 3.057 4.262 7.232 7.382 7.232 2.705 0 6.618-4.139 6.618-7 0-.952-.933-2.916-2.073-4.365-2.714-3.451-8.092-3.665-10.37-.412m5.318.308c-.069.258-.191 1.032-.272 1.719s-.891 1.126-1.8.973c-2.526-.422-3.206 1.674-1.246 3.84 2.229 2.463 3.526 2.44 6.264-.111 1.694-1.578 1.973-2.468 1.216-3.882-.929-1.737-3.894-3.545-4.162-2.539m-58.485 7.895c-.91 2.371.377 4.765 2.357 4.384 2.378-.458 2.378-5.162 0-5.62-.964-.186-2.025.37-2.357 1.236"/></svg>